HIERARCHY
ROOT Hips
{
	OFFSET	0.00	0.00	0.00
	CHANNELS 6 Xposition Yposition Zposition Zrotation Xrotation Yrotation
	JOINT Spine
	{
		OFFSET	 0.00	0.01	 0.00
		CHANNELS 3 Zrotation Xrotation Yrotation
		JOINT Spine1
		{
			OFFSET	 0.00	 2.45913012437421	 0.00
			CHANNELS 3 Zrotation Xrotation Yrotation
            JOINT Neck
            {
                OFFSET	 0.00	 2.48462964506057	 0.00
                CHANNELS 3 Zrotation Xrotation Yrotation
                JOINT Head
                {
                    OFFSET	 0.00	 0.927524780924562	 0.00
                    CHANNELS 3 Zrotation Xrotation Yrotation
                    End Site 
                    {
                        OFFSET	 0.00	 1.14999962169752	 0.00
                    }
                }
            }
			JOINT LeftShoulder
			{
				OFFSET	 0.00	 2.48462964506057	 0.00
				CHANNELS 3 Zrotation Xrotation Yrotation
				JOINT LeftUpArm
				{
					OFFSET	 0.00	 1.24881979654096	 0.00
					CHANNELS 3 Zrotation Xrotation Yrotation
					JOINT LeftForeArm
					{
						OFFSET	 0.00	2.59758046908119	 0.00
						CHANNELS 3 Zrotation Xrotation Yrotation
						JOINT LeftHand
						{
							OFFSET	 0.00	2.45542024364365	 0.00
							CHANNELS 3 Zrotation Xrotation Yrotation
							JOINT LeftHandThumb 
							{
								OFFSET	 0.00	0.00	 0.00
								CHANNELS 3 Zrotation Xrotation Yrotation
								End Site
								{
									OFFSET	 0.00	0.00	1.00000003353624
								}
							}
							JOINT L_Wrist_End 
							{
								OFFSET	 0.00	0.99999967115358	 0.00
								CHANNELS 3 Zrotation Xrotation Yrotation
								End Site 
								{
									OFFSET	 0.00	 0.00	 0.00
								}
							}
						}
					}
				}
			}
			JOINT RightShoulder
			{
				OFFSET	 0.00	 2.48462964506057	 0.00
				CHANNELS 3 Zrotation Xrotation Yrotation
				JOINT RightUpArm
				{
					OFFSET	 0.00	 1.24881979654096	 0.00
					CHANNELS 3 Zrotation Xrotation Yrotation
					JOINT RightForeArm
					{
						OFFSET	 0.00	2.59758046908119	 0.00
						CHANNELS 3 Zrotation Xrotation Yrotation
						JOINT RightHand
						{
							OFFSET	 0.00	2.45542024364365	 0.00
							CHANNELS 3 Zrotation Xrotation Yrotation
							JOINT RightHandThumb 
							{
								OFFSET	 0.00	0.00	 0.00
								CHANNELS 3 Zrotation Xrotation Yrotation
								End Site
								{
									OFFSET	 0.00	0.00	1.00000003353624
								}
							}
							JOINT R_Wrist_End 
							{
								OFFSET	 0.00	0.99999967115358	 0.00
								CHANNELS 3 Zrotation Xrotation Yrotation
								End Site 
								{
									OFFSET	 0.00	 0.00	 0.00
								}
							}
						}
					}
				}
			}
		}
	}
	JOINT LeftUpLeg
	{
		OFFSET	 1.2719394002717	 0.00	 0.00
		CHANNELS 3 Zrotation Xrotation Yrotation
		JOINT LeftLowLeg
		{
			OFFSET	 0.00	-4.3429100912261	 0.00
			CHANNELS 3 Zrotation Xrotation Yrotation
			JOINT LeftFoot
			{
				OFFSET	 0.00	-4.48767017425826	 0.00
				CHANNELS 3 Zrotation Xrotation Yrotation
				JOINT LeftToeBase
                {
                    OFFSET	 0.00	0.00	 1.51507020887566
                    CHANNELS 3 Zrotation Xrotation Yrotation
                    End Site 
                    {
                        OFFSET	 0.00	0.00	 0.75000010571191
                    }
                }
			}
		}
	}
	JOINT RightUpLeg
	{
		OFFSET	 -1.2719393604653	 0.00	 0.00
		CHANNELS 3 Zrotation Xrotation Yrotation
		JOINT RightLowLeg
		{
			OFFSET	 0.00	-4.3429100912261	 0.00
			CHANNELS 3 Zrotation Xrotation Yrotation
			JOINT RightFoot
			{
				OFFSET	 0.00	-4.48767017425826	 0.00
				CHANNELS 3 Zrotation Xrotation Yrotation
				JOINT RightToeBase
                {
                    OFFSET	 0.00	0.00	 1.51507020887566
                    CHANNELS 3 Zrotation Xrotation Yrotation
                    End Site 
                    {
                        OFFSET	 0.00	0.00	 0.749999965609858
                    }
                }   
			}
		}
	}
}
MOTION 
Frames:	11 
Frame Time: 0.02 
 1.137030029296875 6.655969848632813 9.789509887695312 -150.839 81.1791 153.878 2.96559 -9.09888 -2.10158 -0.0212008 3.83694 -2.43859 -0.866763 33.1145 4.00872 12.0704 -48.9566 9.71425 -92.53451 -11.8038 -3.18699 -12.2021 4.621 -31.1816 0.0 19.1897 0.0 29.5674 -8.76262 21.0383 0.0 0.0 0.0 0.0 0.0 0.0 99.35303 -9.78653 -0.702275 11.6047 -0.548012 34.7533 0.0 21.1156 0.0 -17.9002 -2.31493 -21.9221 0.0 0.0 0.0 0.0 0.0 0.0 6.54662 -6.94282 -5.03417 0.0 7.68853 0.0 9.72014 4.9625998 -1.73101 0.0 -33.075 0.0 2.48389 -3.91963 7.21829 0.0 6.20925 0.0 8.41367 9.8454 -6.27973 0.0 -27.2794 0.0 
  1.1366000366210938 6.655339965820312 9.789520263671875 -150.857 81.1813 153.89 2.93739 -9.11276 -2.1151 0.0272484 3.84451 -2.44495 -0.90049 33.1729 4.04525 12.0444 -48.9268 9.69098 -92.57375 -11.8115 -3.21612 -12.1892 4.62556 -31.1809 0.0 19.0989 0.0 29.3969 -8.45044 21.0324 0.0 0.0 0.0 0.0 0.0 0.0 99.32623 -9.79107 -0.698974 11.6103 -0.543323 34.7119 0.0 21.1492 0.0 -17.9197 -2.3448 -21.9327 0.0 0.0 0.0 0.0 0.0 0.0 6.54684 -6.94922 -4.98593 0.0 7.7129 0.0 9.72849 4.9511003 -1.76205 0.0 -33.096 0.0 2.48361 -3.90875 7.19402 0.0 6.19747 0.0 8.39136 9.84435 -6.26607 0.0 -27.2612 0.0 
  1.1357399749755859 6.654730224609375 9.789249877929688 -150.895 81.1759 153.922 2.96444 -9.11615 -2.08826 -0.0474665 3.80431 -2.42496 -0.821564 33.2674 3.97421 12.0779 -48.8691 9.73513 -92.5241 -11.7708 -3.18429 -12.2087 4.65179 -31.152 0.0 19.0958 0.0 29.3055 -8.41771 21.1593 0.0 0.0 0.0 0.0 0.0 0.0 99.37932 -9.85724 -0.730788 11.6055 -0.514969 34.758 0.0 21.1531 0.0 -17.928 -2.33761 -21.9499 0.0 0.0 0.0 0.0 0.0 0.0 6.54723 -6.95632 -5.02344 0.0 7.72396 0.0 9.72442 4.9467 -1.72254 0.0 -33.0779 0.0 2.48742 -3.92029 7.18136 0.0 6.21118 0.0 8.38576 9.8335495 -6.24854 0.0 -27.2743 0.0 
  1.1348799896240234 6.653939819335937 9.789130249023437 -150.913 81.1749 153.935 2.95096 -9.14338 -2.09339 -0.043379 3.82873 -2.42675 -0.820594 33.3288 3.98917 12.1039 -48.8387 9.7438 -92.54169 -11.7645 -3.18944 -12.2118 4.66975 -31.1435 0.0 19.092 0.0 29.3021 -8.36202 21.2682 0.0 0.0 0.0 0.0 0.0 0.0 99.40877 -9.875 -0.739341 11.5998 -0.496019 34.8069 0.0 21.1731 0.0 -17.9299 -2.33323 -21.9564 0.0 0.0 0.0 0.0 0.0 0.0 6.54872 -6.96122 -5.03865 0.0 7.74111 0.0 9.72987 4.9381 -1.69527 0.0 -33.0699 0.0 2.49084 -3.92961 7.19067 0.0 6.23042 0.0 8.39664 9.82402 -6.24045 0.0 -27.264 0.0 
  1.134000015258789 6.6531298828125 9.789130249023437 -150.862 81.1776 153.889 2.9094 -9.17369 -2.13469 0.0298965 3.89092 -2.45776 -0.884392 33.3636 4.0641 12.1003 -48.8427 9.71737 -92.60045 -11.8085 -3.19066 -12.2064 4.69054 -31.1216 0.0 19.084 0.0 29.3344 -8.349 21.2821 0.0 0.0 0.0 0.0 0.0 0.0 99.38926 -9.85403 -0.713429 11.6058 -0.460663 34.7901 0.0 21.1573 0.0 -17.9388 -2.338 -22.018 0.0 0.0 0.0 0.0 0.0 0.0 6.55772 -6.95579 -5.05893 0.0 7.75161 0.0 9.71927 4.9294004 -1.67966 0.0 -33.041702 0.0 2.50116 -3.9199 7.22133 0.0 6.23243 0.0 8.41129 9.82421 -6.26117 0.0 -27.2683 0.0 
  1.1332599639892578 6.652169799804687 9.78906982421875 -150.76 81.1935 153.785 2.91156 -9.18087 -2.14698 0.0261032 3.9427 -2.47086 -0.90074 33.4068 4.08381 12.125 -48.8663 9.71385 -92.62421 -11.8081 -3.169 -12.1762 4.69494 -31.0444 0.0 19.0648 0.0 29.3802 -8.37529 21.2686 0.0 0.0 0.0 0.0 0.0 0.0 99.408966 -9.85256 -0.692534 11.5988 -0.439016 34.7335 0.0 21.1274 0.0 -17.8584 -2.3396 -22.0562 0.0 0.0 0.0 0.0 0.0 0.0 6.5711 -6.9279 -5.02887 0.0 7.75186 0.0 9.71196 4.9142 -1.70553 0.0 -33.0598 0.0 2.51115 -3.88138 7.24787 0.0 6.20949 0.0 8.40201 9.83191 -6.28074 0.0 -27.2735 0.0 
  1.132030029296875 6.651090087890625 9.788800048828126 -150.773 81.1939 153.775 2.93031 -9.20578 -2.12155 -0.0285707 3.98139 -2.45015 -0.836763 33.4706 3.98965 12.1276 -48.8666 9.70748 -92.62592 -11.75 -3.1264 -12.1388 4.68612 -30.9878 0.0 19.0435 0.0 29.4502 -8.32348 21.2409 0.0 0.0 0.0 0.0 0.0 0.0 99.45223 -9.91857 -0.727774 11.6173 -0.367857 34.7242 0.0 21.2173 0.0 -18.0374 -2.83182 -22.09 0.0 0.0 0.0 0.0 0.0 0.0 6.57893 -6.91576 -4.9877 0.0 7.75124 0.0 9.71987 4.9031 -1.70779 0.0 -33.0764 0.0 2.51817 -3.86334 7.26692 0.0 6.18354 0.0 8.40336 9.82631 -6.28254 0.0 -27.2785 0.0 
  1.1310199737548827 6.650059814453125 9.788619995117188 -150.828 81.1887 153.808 2.91074 -9.23952 -2.1281 -0.0247604 4.03195 -2.45185 -0.794513 33.5065 3.93263 12.1076 -48.85 9.71716 -92.63467 -11.7746 -3.1243 -12.1389 4.6998 -30.9982 0.0 19.0514 0.0 29.4838 -8.2786 21.3408 0.0 0.0 0.0 0.0 0.0 0.0 99.49667 -9.90844 -0.725226 11.5822 -0.392316 34.7527 0.0 21.0823 0.0 -17.8382 -2.26866 -21.9142 0.0 0.0 0.0 0.0 0.0 0.0 6.57968 -6.91089 -5.00759 0.0 7.74968 0.0 9.7023 4.901 -1.67296 0.0 -33.0608 0.0 2.52031 -3.86418 7.23615 0.0 6.17475 0.0 8.38688 9.82855 -6.24609 0.0 -27.2678 0.0 
  1.130469970703125 6.649420166015625 9.788599853515626 -150.86 81.1853 153.821 2.90296 -9.25789 -2.12693 -0.0226246 4.05557 -2.44867 -0.792594 33.5306 3.92603 12.1044 -48.8514 9.7127 -92.6468 -11.7904 -3.13485 -12.1252 4.70902 -30.9733 0.0 19.0491 0.0 29.4779 -8.2862 21.3245 0.0 0.0 0.0 0.0 0.0 0.0 99.51336 -9.90321 -0.715115 11.5781 -0.404942 34.7607 0.0 21.062 0.0 -17.798 -2.12371 -21.8694 0.0 0.0 0.0 0.0 0.0 0.0 6.58172 -6.90632 -5.00274 0.0 7.74817 0.0 9.69641 4.8992996 -1.65834 0.0 -33.054 0.0 2.52229 -3.86768 7.22294 0.0 6.17435 0.0 8.3657 9.83288 -6.22319 0.0 -27.2792 0.0 
  1.1292400360107422 6.647839965820313 9.788519897460937 -150.867 81.1853 153.777 2.89725 -9.28985 -2.12396 -0.0235286 4.10199 -2.44418 -0.776769 33.611 3.90086 12.0861 -48.8192 9.70242 -92.66892 -11.8178 -3.17365 -12.1042 4.70023 -30.8995 0.0 19.051 0.0 29.4621 -8.32745 21.3374 0.0 0.0 0.0 0.0 0.0 0.0 99.5337 -9.91101 -0.686271 11.5933 -0.390154 34.791 0.0 21.08 0.0 -17.7496 -2.10383 -21.8471 0.0 0.0 0.0 0.0 0.0 0.0 6.58634 -6.8739 -5.08039 0.0 7.73083 0.0 9.68935 4.9102 -1.53525 0.0 -33.049103 0.0 2.52873 -3.86953 7.23454 0.0 6.18035 0.0 8.36038 9.843349 -6.18042 0.0 -27.2882 0.0 
  1.128779983520508 6.647410278320312 9.788469848632813 -150.911 81.1621 153.8 2.90001 -9.31609 -2.12175 -0.0183231 4.10571 -2.44249 -0.79771 33.6398 3.92166 12.0804 -48.7899 9.66887 -92.67919 -11.8148 -3.17066 -12.1045 4.68101 -30.9204 0.0 19.0524 0.0 29.4602 -8.32462 21.3146 0.0 0.0 0.0 0.0 0.0 0.0 99.53704 -9.90847 -0.700672 11.5953 -0.397783 34.788 0.0 21.0868 0.0 -17.73 -2.09885 -21.8276 0.0 0.0 0.0 0.0 0.0 0.0 6.5926 -6.88964 -5.11604 0.0 7.73296 0.0 9.67583 4.9111004 -1.48328 0.0 -33.049103 0.0 2.53528 -3.88838 7.24279 0.0 6.16921 0.0 8.3546 9.8538 -6.16654 0.0 -27.2903 0.0 
